<?xml version="1.0" encoding="UTF-8"?>
<svg viewBox="0 0 164.675 164.675" xmlns="http://www.w3.org/2000/svg">
 <path d="m84.289 148.92c36.774-1.077 65.712-31.763 64.634-68.537s-31.763-65.712-68.537-64.634-65.712 31.764-64.634 68.538 31.764 65.712 68.538 64.634z" fill="#004cff" stroke="#fff" stroke-width="3"/>
 <path d="m82.5712,14.9419c1.7,1.9-.3,13.4 1,15.2-1.1,1.6 2.2,3.1 0,4.3-3,.8-6.2-1.7-8.6,1.2-1.6,1.4-.6,3.8-2.4,5.1 .5,1.2-2.2,3.2.4,4.1-.5,2.2-.3,4.9 2.4,5.2-1.8,7.1-3.5,14.5-2.8,21.4-.5,1.5.8,2.9.7,4.6 5.1,1.4 8.7,1.3 14.1.7 2.1-2 .9-5.3 2-7.7 .7-.2.9.7 1.2,1.2 .9,5.9 2.2,12.3 1.6,18.2 .3,1.8 1.5,3.8 3.2,4.4 1.5.7 3.8.5 5.4998.2 1.2-2.5 2.7-5.2.9-7.7-1-.3-2.7998,1.8-2.7998,0 .3-7.3 1-16.3-3.6-22.8-1.5-3.9-2.4-8.4-5.8-11-.6-1.9.4-4.9-1.7-5.8-1.5,1.2-.3,4-2.4,4.3 0-1.1-.9-2.2-.2-3.3 2.2-1.3 4.1-4.2 3.6-7.2l-.5-.5c.6-.5 0-1.7-.5-2.4-1.1-.5.2-1.1.3-1.7-1.1-1.5 1.2-4.1-1.5-4.3 3-1-3.2-17.5 3.4-14.5l-7.5-1.2z" fill="#fff"/>
 <path d="m73.2712,51.5419c-.9,3.9-2.3,7.5-2.4,11.7-3.9,2-8,5.9-12.7,3.6-3.3,0-6.9-.7-10.4-1.2 .1-1 .1-2.2-.9-2.6-2.4.2-5,1-6.7-.7 2.1-1.6-.1-3.6.9-5.3l.7-.7c4.1-.5 7.7-.4 10.8,1.9 4.2.9 10.4.8 14-2.6 2.4-2 2.9-6.6 6.7-4.1z" fill="#fff"/>
 <path d="m85.9712,51.2419c-2.5,7-4,15.3-1.9,22.4 .2.6-.3,1.1-.5,1.6-1.9-1-1.6-3.7-1.9-5.7-.9-2.5.3-6.1.2-9.1 .1-3.7 1.5-6.9 3.4-9.6l.7.4z" fill="#004cff"/>
 <path d="m75.1712,78.6419c4.1.7 9.7,2 13.2-.2 1.7,2.3 2.1,6.1 1.4,8.6-.8.8-1.5-.7-1.9-1.2-.5-1.7-1.1-4.7-2.9-5.5-2.1,2.4 1.9,4.5 1.2,6.9-3.8.5-6.9,3.4-9.3,6.8-.3-5.1-.8-10.8-5.5-13.7-.2-1 .7-1.7 1.2-2.2l2.6.3v.2z" fill="#fff"/>
 <path d="m74.9712,94.2419c-1.3,2-4.2,2.1-6.5,2.6-1.8.1-3.8-.3-5.1,1.2 1.1,4.1001 2.55074,5.2777 2.85074,9.5777 .9.9.64926,3.5224.74926,4.6224-4.8,2.1 1.4,6.2-2.6,8.4-6.1-1.1-12.2,2.6-18-.7-1.5-2.7 2.4-1.8 3.6-2.7 1.2.9 1.9-1 3.1-.7 1.3-.7 2.8-2.4 2.2-4.1-.6-1.5-.9-3.2-.7-5-1-2.9-2.1-6.1-2-9.1001l-.7-.7c.9-3.7-3.2-7.6 1.9-9.6 2.9-2.3 6.6-2.4 9.4-4.6 2.6.1 5.6-2.2 8.2-.7 2.6,3.2 3.3,7.3 3.6,11.5z" fill="#fff"/>
 <path d="m91.2712,90.6419c1.3,9.9001-5.1,18.3001-1.5,27.4001-1,.5.3,1.2.5,1.9l.7,11.7c-3.7,1-.8,5-3.8,6.3-3.2,1.6-5.9-2.2-8.6.5-3.3-1.2-6,.1-9.4-.5 .2-1.4-1.3-4.5 1.7-4.3 2.7.3 4.9-.4 6.7-2.2 1.3-1.4.4-3 1.9-4.3-1-1.2 0-3-.2-4.1 .9-6.7-1.8-13.3-1.2-20.2-1.2-3.1001-.3-7.9001 2.6-10.5001 2.7-2.4 6.7-3 9.9-2.7l.7,1z" fill="#fff"/>
</svg>
